{
	"asset":{
		"generator":"Khronos glTF Blender I/O v4.0.44",
		"version":"2.0"
	},
	"scene":0,
	"scenes":[
		{
			"name":"Scene",
			"nodes":[
				0,
				1,
				2,
				3,
				4
			]
		}
	],
	"nodes":[
		{
			"mesh":0,
			"name":"pg"
		},
		{
			"mesh":1,
			"name":"folder",
			"scale":[
				1.323412537574768,
				1.8730034828186035,
				0.3147493898868561
			],
			"translation":[
				0.07088024914264679,
				0,
				-1.089146614074707
			]
		},
		{
			"mesh":2,
			"name":"pg1",
			"translation":[
				0,
				0,
				-3.8489699363708496
			]
		},
		{
			"mesh":3,
			"name":"pg1.001",
			"translation":[
				0,
				0,
				-4.331308841705322
			]
		},
		{
			"mesh":4,
			"name":"pg1.002",
			"translation":[
				0,
				0,
				-3.3488166332244873
			]
		}
	],
	"materials":[
		{
			"doubleSided":true,
			"name":"Material.001",
			"pbrMetallicRoughness":{
				"baseColorFactor":[
					0.8003311157226562,
					0.5561819076538086,
					0.19272106885910034,
					1
				],
				"metallicFactor":0,
				"roughnessFactor":0.5
			}
		}
	],
	"meshes":[
		{
			"name":"Cube.001",
			"primitives":[
				{
					"attributes":{
						"POSITION":0,
						"NORMAL":1,
						"TEXCOORD_0":2
					},
					"indices":3
				}
			]
		},
		{
			"name":"Cube.002",
			"primitives":[
				{
					"attributes":{
						"POSITION":4,
						"NORMAL":5,
						"TEXCOORD_0":6
					},
					"indices":7,
					"material":0
				}
			]
		},
		{
			"name":"Cube.003",
			"primitives":[
				{
					"attributes":{
						"POSITION":8,
						"NORMAL":9,
						"TEXCOORD_0":10
					},
					"indices":11
				}
			]
		},
		{
			"name":"Cube.007",
			"primitives":[
				{
					"attributes":{
						"POSITION":12,
						"NORMAL":13,
						"TEXCOORD_0":14
					},
					"indices":11
				}
			]
		},
		{
			"name":"Cube.008",
			"primitives":[
				{
					"attributes":{
						"POSITION":15,
						"NORMAL":16,
						"TEXCOORD_0":17
					},
					"indices":11
				}
			]
		}
	],
	"accessors":[
		{
			"bufferView":0,
			"componentType":5126,
			"count":230,
			"max":[
				1,
				1.4298220872879028,
				-0.21573615074157715
			],
			"min":[
				-1,
				-1.4298220872879028,
				-0.28764820098876953
			],
			"type":"VEC3"
		},
		{
			"bufferView":1,
			"componentType":5126,
			"count":230,
			"type":"VEC3"
		},
		{
			"bufferView":2,
			"componentType":5126,
			"count":230,
			"type":"VEC2"
		},
		{
			"bufferView":3,
			"componentType":5123,
			"count":864,
			"type":"SCALAR"
		},
		{
			"bufferView":4,
			"componentType":5126,
			"count":36,
			"max":[
				1,
				1,
				6.333876132965088
			],
			"min":[
				-2.748933792114258,
				-1,
				-1.0174744129180908
			],
			"type":"VEC3"
		},
		{
			"bufferView":5,
			"componentType":5126,
			"count":36,
			"type":"VEC3"
		},
		{
			"bufferView":6,
			"componentType":5126,
			"count":36,
			"type":"VEC2"
		},
		{
			"bufferView":7,
			"componentType":5123,
			"count":60,
			"type":"SCALAR"
		},
		{
			"bufferView":8,
			"componentType":5126,
			"count":230,
			"max":[
				1,
				1.4298220872879028,
				4.5818257331848145
			],
			"min":[
				-1,
				-1.4298220872879028,
				4.509913444519043
			],
			"type":"VEC3"
		},
		{
			"bufferView":9,
			"componentType":5126,
			"count":230,
			"type":"VEC3"
		},
		{
			"bufferView":10,
			"componentType":5126,
			"count":230,
			"type":"VEC2"
		},
		{
			"bufferView":11,
			"componentType":5123,
			"count":864,
			"type":"SCALAR"
		},
		{
			"bufferView":12,
			"componentType":5126,
			"count":230,
			"max":[
				1,
				1.4298220872879028,
				4.5818257331848145
			],
			"min":[
				-1,
				-1.4298220872879028,
				4.509913444519043
			],
			"type":"VEC3"
		},
		{
			"bufferView":13,
			"componentType":5126,
			"count":230,
			"type":"VEC3"
		},
		{
			"bufferView":14,
			"componentType":5126,
			"count":230,
			"type":"VEC2"
		},
		{
			"bufferView":15,
			"componentType":5126,
			"count":230,
			"max":[
				1,
				1.4298220872879028,
				4.5818257331848145
			],
			"min":[
				-1,
				-1.4298220872879028,
				4.509913444519043
			],
			"type":"VEC3"
		},
		{
			"bufferView":16,
			"componentType":5126,
			"count":230,
			"type":"VEC3"
		},
		{
			"bufferView":17,
			"componentType":5126,
			"count":230,
			"type":"VEC2"
		}
	],
	"bufferViews":[
		{
			"buffer":0,
			"byteLength":2760,
			"byteOffset":0,
			"target":34962
		},
		{
			"buffer":0,
			"byteLength":2760,
			"byteOffset":2760,
			"target":34962
		},
		{
			"buffer":0,
			"byteLength":1840,
			"byteOffset":5520,
			"target":34962
		},
		{
			"buffer":0,
			"byteLength":1728,
			"byteOffset":7360,
			"target":34963
		},
		{
			"buffer":0,
			"byteLength":432,
			"byteOffset":9088,
			"target":34962
		},
		{
			"buffer":0,
			"byteLength":432,
			"byteOffset":9520,
			"target":34962
		},
		{
			"buffer":0,
			"byteLength":288,
			"byteOffset":9952,
			"target":34962
		},
		{
			"buffer":0,
			"byteLength":120,
			"byteOffset":10240,
			"target":34963
		},
		{
			"buffer":0,
			"byteLength":2760,
			"byteOffset":10360,
			"target":34962
		},
		{
			"buffer":0,
			"byteLength":2760,
			"byteOffset":13120,
			"target":34962
		},
		{
			"buffer":0,
			"byteLength":1840,
			"byteOffset":15880,
			"target":34962
		},
		{
			"buffer":0,
			"byteLength":1728,
			"byteOffset":17720,
			"target":34963
		},
		{
			"buffer":0,
			"byteLength":2760,
			"byteOffset":19448,
			"target":34962
		},
		{
			"buffer":0,
			"byteLength":2760,
			"byteOffset":22208,
			"target":34962
		},
		{
			"buffer":0,
			"byteLength":1840,
			"byteOffset":24968,
			"target":34962
		},
		{
			"buffer":0,
			"byteLength":2760,
			"byteOffset":26808,
			"target":34962
		},
		{
			"buffer":0,
			"byteLength":2760,
			"byteOffset":29568,
			"target":34962
		},
		{
			"buffer":0,
			"byteLength":1840,
			"byteOffset":32328,
			"target":34962
		}
	],
	"buffers":[
		{
			"byteLength":34168,
			"uri":"notebook.bin"
		}
	]
}
