{
	"asset":{
		"generator":"Khronos glTF Blender I/O v4.0.44",
		"version":"2.0"
	},
	"scene":0,
	"scenes":[
		{
			"name":"Scene",
			"nodes":[
				0
			]
		}
	],
	"nodes":[
		{
			"mesh":0,
			"name":"Circle"
		}
	],
	"materials":[
		{
			"doubleSided":true,
			"name":"Material.001",
			"pbrMetallicRoughness":{
				"baseColorFactor":[
					0.8000229597091675,
					0.592572808265686,
					0.05276550352573395,
					1
				],
				"metallicFactor":0,
				"roughnessFactor":0.5
			}
		}
	],
	"meshes":[
		{
			"name":"Circle",
			"primitives":[
				{
					"attributes":{
						"POSITION":0,
						"NORMAL":1,
						"TEXCOORD_0":2
					},
					"indices":3,
					"material":0
				}
			]
		}
	],
	"accessors":[
		{
			"bufferView":0,
			"componentType":5126,
			"count":630,
			"max":[
				0.8646601438522339,
				0.5047834515571594,
				0.7484780550003052
			],
			"min":[
				-0.8646602630615234,
				-0.056492313742637634,
				-0.8962032794952393
			],
			"type":"VEC3"
		},
		{
			"bufferView":1,
			"componentType":5126,
			"count":630,
			"type":"VEC3"
		},
		{
			"bufferView":2,
			"componentType":5126,
			"count":630,
			"type":"VEC2"
		},
		{
			"bufferView":3,
			"componentType":5123,
			"count":948,
			"type":"SCALAR"
		}
	],
	"bufferViews":[
		{
			"buffer":0,
			"byteLength":7560,
			"byteOffset":0,
			"target":34962
		},
		{
			"buffer":0,
			"byteLength":7560,
			"byteOffset":7560,
			"target":34962
		},
		{
			"buffer":0,
			"byteLength":5040,
			"byteOffset":15120,
			"target":34962
		},
		{
			"buffer":0,
			"byteLength":1896,
			"byteOffset":20160,
			"target":34963
		}
	],
	"buffers":[
		{
			"byteLength":22056,
			"uri":"star.bin"
		}
	]
}
