{
	"asset":{
		"generator":"Khronos glTF Blender I/O v4.0.44",
		"version":"2.0"
	},
	"scene":0,
	"scenes":[
		{
			"name":"Scene",
			"nodes":[
				0,
				1
			]
		}
	],
	"nodes":[
		{
			"mesh":0,
			"name":"desktiop",
			"scale":[
				1.5690850019454956,
				1.5690850019454956,
				1.5690850019454956
			]
		},
		{
			"mesh":1,
			"name":"folder",
			"translation":[
				1.8608593940734863,
				0,
				0
			]
		}
	],
	"materials":[
		{
			"doubleSided":true,
			"name":"Material",
			"pbrMetallicRoughness":{
				"baseColorFactor":[
					0.059436459094285965,
					0.21041756868362427,
					0.8005127906799316,
					1
				],
				"metallicFactor":0,
				"roughnessFactor":0.5
			}
		},
		{
			"doubleSided":true,
			"name":"Material.002",
			"pbrMetallicRoughness":{
				"baseColorFactor":[
					0,
					0,
					0,
					1
				],
				"metallicFactor":0,
				"roughnessFactor":0.5
			}
		},
		{
			"doubleSided":true,
			"name":"Material.001",
			"pbrMetallicRoughness":{
				"baseColorFactor":[
					0.8000937700271606,
					0.6232185363769531,
					0.310090035200119,
					1
				],
				"metallicFactor":0,
				"roughnessFactor":0.5
			}
		}
	],
	"meshes":[
		{
			"name":"Cube.001",
			"primitives":[
				{
					"attributes":{
						"POSITION":0,
						"NORMAL":1,
						"TEXCOORD_0":2
					},
					"indices":3,
					"material":0
				},
				{
					"attributes":{
						"POSITION":4,
						"NORMAL":5,
						"TEXCOORD_0":6
					},
					"indices":7,
					"material":1
				}
			]
		},
		{
			"name":"Cube.002",
			"primitives":[
				{
					"attributes":{
						"POSITION":8,
						"NORMAL":9,
						"TEXCOORD_0":10
					},
					"indices":11,
					"material":2
				}
			]
		}
	],
	"accessors":[
		{
			"bufferView":0,
			"componentType":5126,
			"count":169,
			"max":[
				0.8028182983398438,
				1.5908753871917725,
				2.3489456176757812
			],
			"min":[
				0.8028182983398438,
				-1.5908753871917725,
				-2.3489456176757812
			],
			"type":"VEC3"
		},
		{
			"bufferView":1,
			"componentType":5126,
			"count":169,
			"type":"VEC3"
		},
		{
			"bufferView":2,
			"componentType":5126,
			"count":169,
			"type":"VEC2"
		},
		{
			"bufferView":3,
			"componentType":5123,
			"count":864,
			"type":"SCALAR"
		},
		{
			"bufferView":4,
			"componentType":5126,
			"count":948,
			"max":[
				1.2961063385009766,
				2.1211671829223633,
				3.131927490234375
			],
			"min":[
				0.003068232908844948,
				-2.1211671829223633,
				-3.131927490234375
			],
			"type":"VEC3"
		},
		{
			"bufferView":5,
			"componentType":5126,
			"count":948,
			"type":"VEC3"
		},
		{
			"bufferView":6,
			"componentType":5126,
			"count":948,
			"type":"VEC2"
		},
		{
			"bufferView":7,
			"componentType":5123,
			"count":4218,
			"type":"SCALAR"
		},
		{
			"bufferView":8,
			"componentType":5126,
			"count":504,
			"max":[
				0.14405694603919983,
				1.3752562999725342,
				0.4763838052749634
			],
			"min":[
				-0.14400413632392883,
				0.5563714504241943,
				-0.5133985877037048
			],
			"type":"VEC3"
		},
		{
			"bufferView":9,
			"componentType":5126,
			"count":504,
			"type":"VEC3"
		},
		{
			"bufferView":10,
			"componentType":5126,
			"count":504,
			"type":"VEC2"
		},
		{
			"bufferView":11,
			"componentType":5123,
			"count":2304,
			"type":"SCALAR"
		}
	],
	"bufferViews":[
		{
			"buffer":0,
			"byteLength":2028,
			"byteOffset":0,
			"target":34962
		},
		{
			"buffer":0,
			"byteLength":2028,
			"byteOffset":2028,
			"target":34962
		},
		{
			"buffer":0,
			"byteLength":1352,
			"byteOffset":4056,
			"target":34962
		},
		{
			"buffer":0,
			"byteLength":1728,
			"byteOffset":5408,
			"target":34963
		},
		{
			"buffer":0,
			"byteLength":11376,
			"byteOffset":7136,
			"target":34962
		},
		{
			"buffer":0,
			"byteLength":11376,
			"byteOffset":18512,
			"target":34962
		},
		{
			"buffer":0,
			"byteLength":7584,
			"byteOffset":29888,
			"target":34962
		},
		{
			"buffer":0,
			"byteLength":8436,
			"byteOffset":37472,
			"target":34963
		},
		{
			"buffer":0,
			"byteLength":6048,
			"byteOffset":45908,
			"target":34962
		},
		{
			"buffer":0,
			"byteLength":6048,
			"byteOffset":51956,
			"target":34962
		},
		{
			"buffer":0,
			"byteLength":4032,
			"byteOffset":58004,
			"target":34962
		},
		{
			"buffer":0,
			"byteLength":4608,
			"byteOffset":62036,
			"target":34963
		}
	],
	"buffers":[
		{
			"byteLength":66644,
			"uri":"desktopView.bin"
		}
	]
}
